<svg height="512" viewBox="0 0 64 64" width="512" xmlns="http://www.w3.org/2000/svg"><g id="Layer_25" data-name="Layer 25"><path d="m18 53v-5h-4v5" fill="#686868"/><path d="m48 58-1.172-1.172a9.656 9.656 0 0 1 -2.828-6.828h-8a9.656 9.656 0 0 1 -2.828 6.828l-1.172 1.172" fill="#939393"/><path d="m55 33c0 9.941-6.716 18-15 18s-15-8.059-15-18" fill="#ccc"/><path d="m52.589 33h-27.589c0 6.408 2.8 12.019 7 15.209a13.527 13.527 0 0 0 4.5.791c7.867 0 14.436-6.846 16.089-16z" fill="#f2f2f2"/><path d="m23 4h34v20h-34z" fill="#ccc"/><path d="m23 4v10h31a1 1 0 0 0 1-1v-9z" fill="#f2f2f2"/><path d="m24 30h32v3h-32z" fill="#474747"/><path d="m30 19c0-7.18 4.477-13 10-13s10 5.82 10 13a14.23 14.23 0 0 1 -4.668 11h5.342a19.209 19.209 0 0 0 3.326-11c0-9.389-6.268-17-14-17s-14 7.611-14 17a19.209 19.209 0 0 0 3.326 11h5.342a14.232 14.232 0 0 1 -4.668-11z" fill="#686868"/><path d="m34.668 30a14.232 14.232 0 0 1 -4.668-11c0-7.18 4.477-13 10-13s10 5.82 10 13a14.23 14.23 0 0 1 -4.668 11" fill="#ccc"/><path d="m29 58h22v4h-22z" fill="#474747"/><path d="m25 6h2v2h-2z" fill="#ccc"/><path d="m10 58h-1a2 2 0 0 0 -2 2 2 2 0 0 0 2 2h14a2 2 0 0 0 2-2 2 2 0 0 0 -2-2h-1" fill="#474747"/><path d="m22 58h-13a1.992 1.992 0 0 0 -1.82 2.82 1.99 1.99 0 0 0 .82.18h14a1.992 1.992 0 0 0 1.82-2.82 1.99 1.99 0 0 0 -.82-.18z" fill="#686868"/><path d="m16 52a6 6 0 0 1 6 6v1a0 0 0 0 1 0 0h-12a0 0 0 0 1 0 0v-1a6 6 0 0 1 6-6z" fill="#f3a748"/><path d="m15 24h2v24h-2z" fill="#474747"/><circle cx="16" cy="24" fill="#686868" r="2"/><path d="m14 8a6 6 0 0 1 -6-6 6 6 0 0 1 -6 6 6 6 0 0 1 6 6 6 6 0 0 1 6-6z" fill="#c0dafc"/><path d="m19 15a4 4 0 0 1 -4-4 4 4 0 0 1 -4 4 4 4 0 0 1 4 4 4 4 0 0 1 4-4z" fill="#78a0d4"/><path d="m62 49a4 4 0 0 1 -4-4 4 4 0 0 1 -4 4 4 4 0 0 1 4 4 4 4 0 0 1 4-4z" fill="#c0dafc"/><path d="m29 58v2h19a1 1 0 0 0 1-1v-1z" fill="#686868"/><path d="m24 30v2h28a1 1 0 0 0 1-1v-1z" fill="#686868"/><path d="m18 57a1 1 0 0 0 1-1v-3.191a5.987 5.987 0 0 0 -8.91 4.191z" fill="#f9d266"/><path d="m29.326 30h5.342a12.766 12.766 0 0 1 -3.9-6h-4.14a18.289 18.289 0 0 0 2.698 6z" fill="#474747"/><path d="m49.229 24a12.766 12.766 0 0 1 -3.9 6h5.342a18.289 18.289 0 0 0 2.7-6z" fill="#474747"/><path d="m46.98 9.7a8.95 8.95 0 0 0 -6.98-3.7c-5.523 0-10 5.82-10 13a15.562 15.562 0 0 0 2.1 7.954 8.694 8.694 0 0 0 5.493 2.046c5.748 0 10.407-6.044 10.407-13.5a16.809 16.809 0 0 0 -1.02-5.8z" fill="#f2f2f2"/></g></svg>