<svg height="512" viewBox="0 0 64 64" width="512" xmlns="http://www.w3.org/2000/svg"><g id="hand-washing-water-hygiene-hands"><path d="m44.12 33.88a3 3 0 0 1 -2.12 5.12h-5v-4a3.989 3.989 0 0 0 -.54-2h5.54a2.993 2.993 0 0 1 2.12.88z" fill="#ffc477"/><path d="m28.74 31.41a3.945 3.945 0 0 1 1.72 1.59 3.989 3.989 0 0 1 .54 2v4h-16.52a3.976 3.976 0 0 1 -2.6-.96l-3.59-3.08a4 4 0 0 0 -2.6-.96h-2.69v-12h11.93a3.925 3.925 0 0 1 2 .54l10.33 5.96a2.988 2.988 0 0 1 1.49 2.5.41.41 0 0 1 .01.11c0 .1-.01.2-.02.3z" fill="#ffc477"/><path d="m28.76 31.11a3 3 0 0 1 -.4 1.49 2.858 2.858 0 0 1 -.28.4h-5a2.858 2.858 0 0 0 .28-.4 3.006 3.006 0 0 0 -1.1-4.1l-10.33-5.96a3.925 3.925 0 0 0 -2-.54h5a3.925 3.925 0 0 1 2 .54l10.33 5.96a3.019 3.019 0 0 1 1.5 2.61z" fill="#ffa733"/><path d="m45 36a3 3 0 0 1 -3 3h-5a3 3 0 0 0 0-6h5a3 3 0 0 1 3 3z" fill="#ffa733"/><path d="m61 49v4a8 8 0 0 1 -8 8h-42a8 8 0 0 1 -8-8v-4z" fill="#bdfdff"/><path d="m59 43v6h-16v-6h6 4z" fill="#898890"/><path d="m53 8v35h-4v-34a2.006 2.006 0 0 0 -2-2h-10a2.006 2.006 0 0 0 -2 2v6h-4v-7a5 5 0 0 1 5-5h12a5 5 0 0 1 5 5z" fill="#c6c5ca"/><path d="m53 8v35h-2v-35a5 5 0 0 0 -5-5h2a5 5 0 0 1 5 5z" fill="#898890"/><path d="m37 39v10h-6v-14a3.989 3.989 0 0 0 -.54-2 3.945 3.945 0 0 0 -1.72-1.59c.01-.1.02-.2.02-.3a.41.41 0 0 0 -.01-.11h4.25a4.01 4.01 0 0 1 4 4z" fill="#2488ff"/><path d="m37 35v14h-2v-14a4.01 4.01 0 0 0 -4-4h2a4.01 4.01 0 0 1 4 4z" fill="#006df0"/><path d="m37 15v4h-4-4v-4h2 4z" fill="#898890"/><path d="m34.99 24.3a2 2 0 0 1 -1.88 2.7h-.22a2 2 0 0 1 -1.88-2.7l1.99-5.3z" fill="#006df0"/><path d="m33.11 27h-.22a2.038 2.038 0 0 1 -.89-.2 2 2 0 0 0 .99-2.5l-.99-2.64 1-2.66 1.99 5.3a2 2 0 0 1 -1.88 2.7z" fill="#004fac"/><path d="m21 39h6v10h-6z" fill="#2488ff"/><path d="m61 48h-1v-5a1 1 0 0 0 -1-1h-5v-34a6 6 0 0 0 -6-6h-12a6 6 0 0 0 -6 6v6h-1a1 1 0 0 0 -1 1v4a1 1 0 0 0 1 1h2.56l-1.48 3.95a2.994 2.994 0 0 0 2.81 4.05h.22a2.994 2.994 0 0 0 2.81-4.05l-1.48-3.95h2.56a1 1 0 0 0 1-1v-4a1 1 0 0 0 -1-1h-1v-5a1 1 0 0 1 1-1h10a1 1 0 0 1 1 1v16h-4v-3h-2v8h2v-3h4v15h-5a1 1 0 0 0 -1 1v5h-4v-8h4a4 4 0 1 0 0-8h-5.01a4.978 4.978 0 0 0 -3.99-2h-3.4a3.986 3.986 0 0 0 -1.84-2.37l-10.32-5.95a4.875 4.875 0 0 0 -2.51-.68h-11.93a1 1 0 0 0 -1 1v12a1 1 0 0 0 1 1h2.69a2.956 2.956 0 0 1 1.95.72l3.59 3.08a5 5 0 0 0 3.25 1.2h5.52v8h-17a1 1 0 0 0 -1 1v4a9.014 9.014 0 0 0 9 9h42a9.014 9.014 0 0 0 9-9v-4a1 1 0 0 0 -1-1zm-27.06-22.43a1 1 0 0 1 -.83.43h-.22a.995.995 0 0 1 -.94-1.35l1.05-2.8 1.05 2.8a1 1 0 0 1 -.11.92zm2.06-7.57h-6v-2h6zm11-12h-10a3.009 3.009 0 0 0 -3 3v5h-2v-6a4 4 0 0 1 4-4h12a4 4 0 0 1 4 4v34h-2v-33a3.009 3.009 0 0 0 -3-3zm-3 38h14v4h-14zm-2-10a2.015 2.015 0 0 1 2 2 2.006 2.006 0 0 1 -2 2h-4v-3a5.566 5.566 0 0 0 -.11-1zm-9-2a3.019 3.019 0 0 1 3 3v13h-4v-13a5.037 5.037 0 0 0 -.67-2.5c-.11-.18-.23-.34-.35-.5zm-18.52 6a2.956 2.956 0 0 1 -1.95-.72l-3.59-3.08a5 5 0 0 0 -3.25-1.2h-1.69v-10h10.93a2.916 2.916 0 0 1 1.5.41l10.33 5.95a2 2 0 0 1 .99 1.67.41.41 0 0 0 .01.11c0 .06-.01.11-.01.17a1.942 1.942 0 0 1 -.26.79 2.111 2.111 0 0 1 -.18.27 2.013 2.013 0 0 1 -2.55.46l-11.26-6.5-1 1.74 11.26 6.5a4.011 4.011 0 0 0 5.09-.93 4.328 4.328 0 0 0 .38-.54c.01-.02.01-.04.02-.06a2.191 2.191 0 0 1 .34.46 2.969 2.969 0 0 1 .41 1.5v3zm15.52 2v8h-2v-8zm-4 0v8h-4v-8zm34 13a7.008 7.008 0 0 1 -7 7h-42a7.008 7.008 0 0 1 -7-7v-3h56z"/></g></svg>